<svg xmlns="http://www.w3.org/2000/svg" xmlns:xlink="http://www.w3.org/1999/xlink" width="228" height="142" version="1.1" viewBox="0 0 228 142"><title>sync content</title><desc>Created with Sketch.</desc><defs><filter id="filter-1" width="111.3%" height="2674.5%" x="-5.7%" y="-1287.3%" filterUnits="objectBoundingBox"><feGaussianBlur in="SourceGraphic" stdDeviation="1.981"/></filter><filter id="filter-2" width="111.3%" height="2674.5%" x="-5.7%" y="-1287.3%" filterUnits="objectBoundingBox"><feGaussianBlur in="SourceGraphic" stdDeviation="1.981"/></filter><filter id="filter-3" width="111.3%" height="2674.5%" x="-5.7%" y="-1287.3%" filterUnits="objectBoundingBox"><feGaussianBlur in="SourceGraphic" stdDeviation="1.981"/></filter><filter id="filter-4" width="111.3%" height="2674.5%" x="-5.7%" y="-1287.3%" filterUnits="objectBoundingBox"><feGaussianBlur in="SourceGraphic" stdDeviation="1.981"/></filter></defs><g id="iFrame-Variants" fill="none" fill-rule="evenodd" stroke="none" stroke-width="1"><g id="iFrame_v3_mouseover" transform="translate(-1074.000000, -733.000000)"><g id="sync" transform="translate(1020.000000, 583.000000)"><g id="sync-content" transform="translate(55.000000, 150.000000)"><g id="list" transform="translate(0.622010, 0.000000)"><g id="MACBOOK"><g><rect id="shadow" width="104.987" height="1" x=".616" y="61.399" fill="#000" fill-opacity=".25" filter="url(#filter-1)" rx=".5"/><rect id="base" width="106.526" height="2.308" x="0" y="59.091" fill="#A9ABAE" rx="1.154"/><rect id="shape" width="106.526" height="4.616" x="0" y="55.859" fill="#E6E7E8"/><rect id="light" width="3.695" height="1" x="97.906" y="57.244" fill="silver" rx=".5"/><path id="screen" fill="#373435" d="M18.5444249,0 C14.1689041,0 10.6218436,3.54724828 10.6218436,7.91433943 L10.6218436,55.8591892 L95.4426529,55.8591892 L95.4426529,7.91433943 C95.4426529,3.54337046 91.8925788,0 87.5200716,0 L18.5444249,0 Z"/><g id="display-2" transform="translate(13.762406, 3.436699)"><rect id="display" width="78.971" height="49.858" x=".092" y=".103" fill="#FFF"/><g id="Group" fill="#05BCFC" transform="translate(26.930810, 6.606471)"><rect id="Rectangle" width="31.446" height="3.376" x="11.969" y="1.201" rx="1.688"/><ellipse id="Oval" cx="3.292" cy="3.303" rx="3.292" ry="3.303"/></g><g id="Group-Copy" fill="#05BCFC" transform="translate(26.930810, 16.215883)"><rect id="Rectangle" width="31.446" height="3.376" x="11.969" y="1.201" rx="1.688"/><ellipse id="Oval" cx="3.292" cy="3.303" rx="3.292" ry="3.303"/></g><g id="Group-Copy-2" fill="#05BCFC" transform="translate(26.930810, 25.825295)"><rect id="Rectangle" width="31.446" height="3.376" x="11.969" y="1.201" rx="1.688"/><ellipse id="Oval" cx="3.292" cy="3.303" rx="3.292" ry="3.303"/></g><g id="Group-Copy-3" fill="#D8D8D8" transform="translate(26.930810, 35.434707)"><rect id="Rectangle" width="31.446" height="3.376" x="11.969" y="1.201" rx="1.688"/><ellipse id="Oval" cx="3.292" cy="3.303" rx="3.292" ry="3.303"/></g><text id="settings---material" fill="#D8D8D8" font-family="material" font-size="15.847" font-weight="normal"><tspan x="4.788" y="17.085"></tspan></text></g><path id="shine" fill="#000" d="M13.5991041,0 L89.7992867,55.8591892 L89.7992867,7.91433943 C89.7992867,3.54337046 86.2515487,0 81.8780393,0 L13.5991041,0 Z" opacity=".05" transform="translate(51.699195, 27.929595) rotate(-180.000000) translate(-51.699195, -27.929595)"/><ellipse id="camera" cx="53.34" cy="1.77" fill="#7C7B7B" rx="1" ry="1"/></g></g></g><g id="list-copy-2" transform="translate(0.622010, 76.246108)"><g id="MACBOOK"><g><rect id="shadow" width="104.987" height="1" x=".616" y="61.399" fill="#000" fill-opacity=".25" filter="url(#filter-2)" rx=".5"/><rect id="base" width="106.526" height="2.308" x="0" y="59.091" fill="#A9ABAE" rx="1.154"/><rect id="shape" width="106.526" height="4.616" x="0" y="55.859" fill="#E6E7E8"/><rect id="light" width="3.695" height="1" x="97.906" y="57.244" fill="silver" rx=".5"/><path id="screen" fill="#373435" d="M18.5444249,0 C14.1689041,0 10.6218436,3.54724828 10.6218436,7.91433943 L10.6218436,55.8591892 L95.4426529,55.8591892 L95.4426529,7.91433943 C95.4426529,3.54337046 91.8925788,0 87.5200716,0 L18.5444249,0 Z"/><g id="display-2" transform="translate(13.762406, 3.436699)"><rect id="display" width="78.971" height="49.858" x=".092" y=".103" fill="#FFF"/><g id="Group" fill="#05BCFC" transform="translate(26.930810, 6.606471)"><rect id="Rectangle" width="31.446" height="3.376" x="11.969" y="1.201" rx="1.688"/><ellipse id="Oval" cx="3.292" cy="3.303" rx="3.292" ry="3.303"/></g><g id="Group-Copy" fill="#05BCFC" transform="translate(26.930810, 16.215883)"><rect id="Rectangle" width="31.446" height="3.376" x="11.969" y="1.201" rx="1.688"/><ellipse id="Oval" cx="3.292" cy="3.303" rx="3.292" ry="3.303"/></g><g id="Group-Copy-2" fill="#05BCFC" transform="translate(26.930810, 25.825295)"><rect id="Rectangle" width="31.446" height="3.376" x="11.969" y="1.201" rx="1.688"/><ellipse id="Oval" cx="3.292" cy="3.303" rx="3.292" ry="3.303"/></g><g id="Group-Copy-3" fill="#D8D8D8" transform="translate(26.930810, 35.434707)"><rect id="Rectangle" width="31.446" height="3.376" x="11.969" y="1.201" rx="1.688"/><ellipse id="Oval" cx="3.292" cy="3.303" rx="3.292" ry="3.303"/></g><text id="settings---material" fill="#D8D8D8" font-family="material" font-size="15.847" font-weight="normal"><tspan x="4.788" y="17.085"></tspan></text></g><path id="shine" fill="#000" d="M13.5991041,0 L89.7992867,55.8591892 L89.7992867,7.91433943 C89.7992867,3.54337046 86.2515487,0 81.8780393,0 L13.5991041,0 Z" opacity=".05" transform="translate(51.699195, 27.929595) rotate(-180.000000) translate(-51.699195, -27.929595)"/><ellipse id="camera" cx="53.34" cy="1.77" fill="#7C7B7B" rx="1" ry="1"/></g></g></g><g id="list-copy" transform="translate(119.473684, 0.000000)"><g id="MACBOOK"><g><rect id="shadow" width="104.987" height="1" x=".616" y="61.399" fill="#000" fill-opacity=".25" filter="url(#filter-3)" rx=".5"/><rect id="base" width="106.526" height="2.308" x="0" y="59.091" fill="#A9ABAE" rx="1.154"/><rect id="shape" width="106.526" height="4.616" x="0" y="55.859" fill="#E6E7E8"/><rect id="light" width="3.695" height="1" x="97.906" y="57.244" fill="silver" rx=".5"/><path id="screen" fill="#373435" d="M18.5444249,0 C14.1689041,0 10.6218436,3.54724828 10.6218436,7.91433943 L10.6218436,55.8591892 L95.4426529,55.8591892 L95.4426529,7.91433943 C95.4426529,3.54337046 91.8925788,0 87.5200716,0 L18.5444249,0 Z"/><g id="display-2" transform="translate(13.762406, 3.436699)"><rect id="display" width="78.971" height="49.858" x=".092" y=".103" fill="#FFF"/><g id="Group" fill="#05BCFC" transform="translate(26.930810, 6.606471)"><rect id="Rectangle" width="31.446" height="3.376" x="11.969" y="1.201" rx="1.688"/><ellipse id="Oval" cx="3.292" cy="3.303" rx="3.292" ry="3.303"/></g><g id="Group-Copy" fill="#05BCFC" transform="translate(26.930810, 16.215883)"><rect id="Rectangle" width="31.446" height="3.376" x="11.969" y="1.201" rx="1.688"/><ellipse id="Oval" cx="3.292" cy="3.303" rx="3.292" ry="3.303"/></g><g id="Group-Copy-2" fill="#05BCFC" transform="translate(26.930810, 25.825295)"><rect id="Rectangle" width="31.446" height="3.376" x="11.969" y="1.201" rx="1.688"/><ellipse id="Oval" cx="3.292" cy="3.303" rx="3.292" ry="3.303"/></g><g id="Group-Copy-3" fill="#D8D8D8" transform="translate(26.930810, 35.434707)"><rect id="Rectangle" width="31.446" height="3.376" x="11.969" y="1.201" rx="1.688"/><ellipse id="Oval" cx="3.292" cy="3.303" rx="3.292" ry="3.303"/></g><text id="settings---material" fill="#D8D8D8" font-family="material" font-size="15.847" font-weight="normal"><tspan x="4.788" y="17.085"></tspan></text></g><path id="shine" fill="#000" d="M13.5991041,0 L89.7992867,55.8591892 L89.7992867,7.91433943 C89.7992867,3.54337046 86.2515487,0 81.8780393,0 L13.5991041,0 Z" opacity=".05" transform="translate(51.699195, 27.929595) rotate(-180.000000) translate(-51.699195, -27.929595)"/><ellipse id="camera" cx="53.34" cy="1.77" fill="#7C7B7B" rx="1" ry="1"/></g></g></g><g id="list-copy-3" transform="translate(119.473684, 76.246108)"><g id="MACBOOK"><g><rect id="shadow" width="104.987" height="1" x=".616" y="61.399" fill="#000" fill-opacity=".25" filter="url(#filter-4)" rx=".5"/><rect id="base" width="106.526" height="2.308" x="0" y="59.091" fill="#A9ABAE" rx="1.154"/><rect id="shape" width="106.526" height="4.616" x="0" y="55.859" fill="#E6E7E8"/><rect id="light" width="3.695" height="1" x="97.906" y="57.244" fill="silver" rx=".5"/><path id="screen" fill="#373435" d="M18.5444249,0 C14.1689041,0 10.6218436,3.54724828 10.6218436,7.91433943 L10.6218436,55.8591892 L95.4426529,55.8591892 L95.4426529,7.91433943 C95.4426529,3.54337046 91.8925788,0 87.5200716,0 L18.5444249,0 Z"/><g id="display-2" transform="translate(13.762406, 3.436699)"><rect id="display" width="78.971" height="49.858" x=".092" y=".103" fill="#FFF"/><g id="Group" fill="#05BCFC" transform="translate(26.930810, 6.606471)"><rect id="Rectangle" width="31.446" height="3.376" x="11.969" y="1.201" rx="1.688"/><ellipse id="Oval" cx="3.292" cy="3.303" rx="3.292" ry="3.303"/></g><g id="Group-Copy" fill="#05BCFC" transform="translate(26.930810, 16.215883)"><rect id="Rectangle" width="31.446" height="3.376" x="11.969" y="1.201" rx="1.688"/><ellipse id="Oval" cx="3.292" cy="3.303" rx="3.292" ry="3.303"/></g><g id="Group-Copy-2" fill="#05BCFC" transform="translate(26.930810, 25.825295)"><rect id="Rectangle" width="31.446" height="3.376" x="11.969" y="1.201" rx="1.688"/><ellipse id="Oval" cx="3.292" cy="3.303" rx="3.292" ry="3.303"/></g><g id="Group-Copy-3" fill="#D8D8D8" transform="translate(26.930810, 35.434707)"><rect id="Rectangle" width="31.446" height="3.376" x="11.969" y="1.201" rx="1.688"/><ellipse id="Oval" cx="3.292" cy="3.303" rx="3.292" ry="3.303"/></g><text id="settings---material" fill="#D8D8D8" font-family="material" font-size="15.847" font-weight="normal"><tspan x="4.788" y="17.085"></tspan></text></g><path id="shine" fill="#000" d="M13.5991041,0 L89.7992867,55.8591892 L89.7992867,7.91433943 C89.7992867,3.54337046 86.2515487,0 81.8780393,0 L13.5991041,0 Z" opacity=".05" transform="translate(51.699195, 27.929595) rotate(-180.000000) translate(-51.699195, -27.929595)"/><ellipse id="camera" cx="53.34" cy="1.77" fill="#7C7B7B" rx="1" ry="1"/></g></g></g></g></g></g></g></svg>